<svg xmlns="http://www.w3.org/2000/svg" xmlns:xlink="http://www.w3.org/1999/xlink" width="45" zoomAndPan="magnify" viewBox="0 0 33.75 33.749999" height="45" preserveAspectRatio="xMidYMid meet" version="1.0"><defs><clipPath id="7ed2213f5f"><path d="M 0 0 L 33.5 0 L 33.5 33.5 L 0 33.5 Z M 0 0 " clip-rule="nonzero"/></clipPath><clipPath id="61bf0f3f34"><path d="M 10.496094 10.125 L 23.898438 10.125 L 23.898438 23.527344 L 10.496094 23.527344 Z M 10.496094 10.125 " clip-rule="nonzero"/></clipPath></defs><g clip-path="url(#7ed2213f5f)"><path fill="#000000" d="M 16.75 0 C 16.203125 0 15.65625 0.0273438 15.109375 0.0820312 C 14.5625 0.132812 14.019531 0.214844 13.484375 0.320312 C 12.945312 0.429688 12.414062 0.5625 11.886719 0.722656 C 11.363281 0.878906 10.847656 1.066406 10.339844 1.273438 C 9.832031 1.484375 9.339844 1.71875 8.855469 1.976562 C 8.371094 2.238281 7.902344 2.519531 7.445312 2.824219 C 6.988281 3.128906 6.546875 3.453125 6.125 3.800781 C 5.699219 4.148438 5.292969 4.519531 4.90625 4.90625 C 4.519531 5.292969 4.148438 5.699219 3.800781 6.125 C 3.453125 6.546875 3.128906 6.988281 2.824219 7.445312 C 2.519531 7.902344 2.238281 8.371094 1.976562 8.855469 C 1.71875 9.339844 1.484375 9.832031 1.273438 10.339844 C 1.066406 10.847656 0.878906 11.363281 0.722656 11.886719 C 0.5625 12.414062 0.429688 12.945312 0.320312 13.484375 C 0.214844 14.019531 0.132812 14.5625 0.0820312 15.109375 C 0.0273438 15.65625 0 16.203125 0 16.75 C 0 17.300781 0.0273438 17.847656 0.0820312 18.394531 C 0.132812 18.9375 0.214844 19.480469 0.320312 20.019531 C 0.429688 20.558594 0.5625 21.089844 0.722656 21.613281 C 0.878906 22.136719 1.066406 22.65625 1.273438 23.160156 C 1.484375 23.667969 1.71875 24.164062 1.976562 24.648438 C 2.238281 25.132812 2.519531 25.601562 2.824219 26.058594 C 3.128906 26.511719 3.453125 26.953125 3.800781 27.378906 C 4.148438 27.800781 4.519531 28.207031 4.90625 28.59375 C 5.292969 28.984375 5.699219 29.351562 6.125 29.699219 C 6.546875 30.046875 6.988281 30.375 7.445312 30.679688 C 7.902344 30.984375 8.371094 31.265625 8.855469 31.523438 C 9.339844 31.78125 9.832031 32.015625 10.339844 32.226562 C 10.847656 32.4375 11.363281 32.621094 11.886719 32.78125 C 12.414062 32.941406 12.945312 33.074219 13.484375 33.179688 C 14.019531 33.285156 14.5625 33.367188 15.109375 33.421875 C 15.65625 33.476562 16.203125 33.5 16.75 33.5 C 17.300781 33.5 17.847656 33.476562 18.394531 33.421875 C 18.9375 33.367188 19.480469 33.285156 20.019531 33.179688 C 20.558594 33.074219 21.089844 32.941406 21.613281 32.78125 C 22.136719 32.621094 22.65625 32.4375 23.160156 32.226562 C 23.667969 32.015625 24.164062 31.78125 24.648438 31.523438 C 25.132812 31.265625 25.601562 30.984375 26.058594 30.679688 C 26.511719 30.375 26.953125 30.046875 27.378906 29.699219 C 27.800781 29.351562 28.207031 28.984375 28.59375 28.59375 C 28.984375 28.207031 29.351562 27.800781 29.699219 27.378906 C 30.046875 26.953125 30.375 26.511719 30.679688 26.058594 C 30.984375 25.601562 31.265625 25.132812 31.523438 24.648438 C 31.78125 24.164062 32.015625 23.667969 32.226562 23.160156 C 32.4375 22.65625 32.621094 22.136719 32.78125 21.613281 C 32.941406 21.089844 33.074219 20.558594 33.179688 20.019531 C 33.285156 19.480469 33.367188 18.9375 33.421875 18.394531 C 33.476562 17.847656 33.5 17.300781 33.5 16.75 C 33.5 16.203125 33.476562 15.65625 33.421875 15.109375 C 33.367188 14.5625 33.285156 14.019531 33.179688 13.484375 C 33.074219 12.945312 32.941406 12.414062 32.78125 11.886719 C 32.621094 11.363281 32.4375 10.847656 32.226562 10.339844 C 32.015625 9.832031 31.78125 9.339844 31.523438 8.855469 C 31.265625 8.371094 30.984375 7.902344 30.679688 7.445312 C 30.375 6.988281 30.046875 6.546875 29.699219 6.125 C 29.351562 5.699219 28.984375 5.292969 28.59375 4.90625 C 28.207031 4.519531 27.800781 4.148438 27.378906 3.800781 C 26.953125 3.453125 26.511719 3.128906 26.058594 2.824219 C 25.601562 2.519531 25.132812 2.238281 24.648438 1.976562 C 24.164062 1.71875 23.667969 1.484375 23.160156 1.273438 C 22.65625 1.066406 22.136719 0.878906 21.613281 0.722656 C 21.089844 0.5625 20.558594 0.429688 20.019531 0.320312 C 19.480469 0.214844 18.9375 0.132812 18.394531 0.0820312 C 17.847656 0.0273438 17.300781 0 16.75 0 Z M 16.75 30.152344 C 15.871094 30.152344 15 30.066406 14.136719 29.894531 C 13.273438 29.722656 12.4375 29.46875 11.621094 29.132812 C 10.808594 28.792969 10.039062 28.382812 9.304688 27.894531 C 8.574219 27.40625 7.898438 26.847656 7.273438 26.226562 C 6.652344 25.605469 6.097656 24.925781 5.609375 24.195312 C 5.121094 23.464844 4.707031 22.691406 4.371094 21.878906 C 4.035156 21.066406 3.78125 20.226562 3.609375 19.367188 C 3.4375 18.503906 3.351562 17.628906 3.351562 16.75 C 3.351562 15.871094 3.4375 15 3.609375 14.136719 C 3.78125 13.273438 4.035156 12.4375 4.371094 11.621094 C 4.707031 10.808594 5.121094 10.039062 5.609375 9.304688 C 6.097656 8.574219 6.652344 7.898438 7.273438 7.273438 C 7.898438 6.652344 8.574219 6.097656 9.304688 5.609375 C 10.039062 5.121094 10.808594 4.707031 11.621094 4.371094 C 12.4375 4.035156 13.273438 3.78125 14.136719 3.609375 C 15 3.4375 15.871094 3.351562 16.75 3.351562 C 17.628906 3.351562 18.503906 3.4375 19.367188 3.609375 C 20.226562 3.78125 21.066406 4.035156 21.878906 4.371094 C 22.691406 4.707031 23.464844 5.121094 24.195312 5.609375 C 24.925781 6.097656 25.605469 6.652344 26.226562 7.273438 C 26.847656 7.898438 27.40625 8.574219 27.894531 9.304688 C 28.382812 10.039062 28.792969 10.808594 29.132812 11.621094 C 29.46875 12.4375 29.722656 13.273438 29.894531 14.136719 C 30.066406 15 30.152344 15.871094 30.152344 16.75 C 30.152344 17.628906 30.066406 18.503906 29.894531 19.367188 C 29.722656 20.226562 29.46875 21.066406 29.132812 21.878906 C 28.792969 22.691406 28.382812 23.464844 27.894531 24.195312 C 27.40625 24.925781 26.847656 25.605469 26.226562 26.226562 C 25.605469 26.847656 24.925781 27.40625 24.195312 27.894531 C 23.464844 28.382812 22.691406 28.792969 21.878906 29.132812 C 21.066406 29.46875 20.226562 29.722656 19.367188 29.894531 C 18.503906 30.066406 17.628906 30.152344 16.75 30.152344 Z M 16.75 30.152344 " fill-opacity="1" fill-rule="nonzero"/></g><path fill="#000000" d="M 25.125 15.074219 L 18.425781 15.074219 L 18.425781 8.375 C 18.425781 8.152344 18.382812 7.941406 18.296875 7.734375 C 18.214844 7.527344 18.09375 7.347656 17.933594 7.191406 C 17.777344 7.035156 17.597656 6.914062 17.390625 6.828125 C 17.1875 6.742188 16.972656 6.699219 16.75 6.699219 C 16.527344 6.699219 16.316406 6.742188 16.109375 6.828125 C 15.90625 6.914062 15.722656 7.035156 15.566406 7.191406 C 15.410156 7.347656 15.289062 7.527344 15.203125 7.734375 C 15.117188 7.941406 15.074219 8.152344 15.074219 8.375 L 15.074219 15.074219 L 8.375 15.074219 C 8.152344 15.074219 7.941406 15.117188 7.734375 15.203125 C 7.527344 15.289062 7.347656 15.410156 7.191406 15.566406 C 7.035156 15.722656 6.914062 15.90625 6.828125 16.109375 C 6.742188 16.316406 6.699219 16.527344 6.699219 16.75 C 6.699219 16.972656 6.742188 17.1875 6.828125 17.390625 C 6.914062 17.597656 7.035156 17.777344 7.191406 17.933594 C 7.347656 18.09375 7.527344 18.214844 7.734375 18.296875 C 7.941406 18.382812 8.152344 18.425781 8.375 18.425781 L 15.074219 18.425781 L 15.074219 25.125 C 15.074219 25.347656 15.117188 25.5625 15.203125 25.765625 C 15.289062 25.972656 15.410156 26.152344 15.566406 26.3125 C 15.722656 26.46875 15.90625 26.589844 16.109375 26.675781 C 16.316406 26.757812 16.527344 26.800781 16.75 26.800781 C 16.972656 26.800781 17.1875 26.757812 17.390625 26.675781 C 17.597656 26.589844 17.777344 26.46875 17.933594 26.3125 C 18.09375 26.152344 18.214844 25.972656 18.296875 25.765625 C 18.382812 25.5625 18.425781 25.347656 18.425781 25.125 L 18.425781 18.425781 L 25.125 18.425781 C 25.347656 18.425781 25.5625 18.382812 25.765625 18.296875 C 25.972656 18.214844 26.152344 18.09375 26.3125 17.933594 C 26.46875 17.777344 26.589844 17.597656 26.675781 17.390625 C 26.757812 17.1875 26.800781 16.972656 26.800781 16.75 C 26.800781 16.527344 26.757812 16.316406 26.675781 16.109375 C 26.589844 15.90625 26.46875 15.722656 26.3125 15.566406 C 26.152344 15.410156 25.972656 15.289062 25.765625 15.203125 C 25.5625 15.117188 25.347656 15.074219 25.125 15.074219 Z M 25.125 15.074219 " fill-opacity="1" fill-rule="nonzero"/><g clip-path="url(#61bf0f3f34)"><path fill="#000000" d="M 10.945312 17.273438 L 16.75 17.273438 L 16.75 23.078125 C 16.75 23.324219 16.949219 23.527344 17.199219 23.527344 C 17.445312 23.527344 17.644531 23.324219 17.644531 23.078125 L 17.644531 17.273438 L 23.453125 17.273438 C 23.699219 17.273438 23.898438 17.070312 23.898438 16.824219 C 23.898438 16.578125 23.699219 16.378906 23.453125 16.378906 L 17.644531 16.378906 L 17.644531 10.570312 C 17.644531 10.324219 17.445312 10.125 17.199219 10.125 C 16.949219 10.125 16.75 10.324219 16.75 10.570312 L 16.75 16.378906 L 10.945312 16.378906 C 10.695312 16.378906 10.496094 16.578125 10.496094 16.824219 C 10.496094 17.070312 10.695312 17.273438 10.945312 17.273438 Z M 10.945312 17.273438 " fill-opacity="1" fill-rule="nonzero"/></g></svg>