<svg xmlns="http://www.w3.org/2000/svg" xmlns:xlink="http://www.w3.org/1999/xlink" width="200" zoomAndPan="magnify" viewBox="0 0 150 149.999998" height="200" preserveAspectRatio="xMidYMid meet" version="1.0"><defs><clipPath id="967545737b"><path d="M 6 42 L 101.222656 42 L 101.222656 116 L 6 116 Z M 6 42 " clip-rule="nonzero"/></clipPath><clipPath id="d9212341e3"><path d="M 60.859375 41 L 145.609375 41 L 145.609375 115.558594 L 60.859375 115.558594 Z M 60.859375 41 " clip-rule="nonzero"/></clipPath><clipPath id="dc5f9d8b14"><path d="M 4.0625 38 L 99.3125 38 L 99.3125 111.992188 L 4.0625 111.992188 Z M 4.0625 38 " clip-rule="nonzero"/></clipPath><clipPath id="77cd77750e"><path d="M 58.949219 37 L 143.699219 37 L 143.699219 111 L 58.949219 111 Z M 58.949219 37 " clip-rule="nonzero"/></clipPath></defs><g clip-path="url(#967545737b)"><path fill="#ffffff" d="M 102.21875 84.386719 C 101.238281 86.898438 102.496094 89.6875 104.96875 90.667969 C 107.480469 91.652344 110.269531 90.394531 111.25 87.921875 L 123.347656 57.015625 C 124.289062 54.542969 123.074219 51.753906 120.597656 50.773438 C 118.085938 49.789062 115.296875 51.007812 114.316406 53.523438 Z M 15.949219 110.066406 C 14.96875 112.582031 12.179688 113.796875 9.707031 112.816406 C 7.191406 111.835938 5.976562 109.046875 6.957031 106.570312 L 28.121094 52.34375 C 29.652344 48.496094 32.597656 45.589844 36.132812 44.019531 C 39.667969 42.488281 43.789062 42.25 47.636719 43.785156 L 47.71875 43.785156 C 51.566406 45.316406 54.46875 48.257812 56.003906 51.753906 C 57.535156 55.289062 57.769531 59.371094 56.277344 63.21875 L 56.238281 63.300781 L 42.335938 98.601562 L 42.296875 98.640625 L 42.257812 98.796875 C 41.789062 100.09375 41.90625 101.507812 42.414062 102.722656 C 42.964844 103.902344 43.90625 104.921875 45.203125 105.472656 C 45.359375 105.550781 45.519531 105.628906 45.675781 105.671875 C 46.96875 106.101562 48.34375 105.984375 49.5625 105.472656 C 50.742188 104.964844 51.761719 104.019531 52.3125 102.765625 C 52.390625 102.566406 52.46875 102.332031 52.546875 102.136719 L 69.039062 59.804688 L 69.472656 58.707031 C 69.472656 58.625 69.511719 58.546875 69.550781 58.46875 C 72.964844 49.59375 77.480469 38.324219 91.460938 43.746094 L 91.5 43.746094 C 91.578125 43.785156 91.65625 43.824219 91.777344 43.863281 C 95.507812 45.394531 98.332031 48.300781 99.824219 51.753906 C 101.394531 55.289062 101.59375 59.371094 100.101562 63.261719 L 100.140625 63.261719 L 100.101562 63.261719 C 100.101562 63.339844 100.0625 63.417969 100.019531 63.496094 L 90.480469 87.921875 C 89.496094 90.394531 86.671875 91.652344 84.195312 90.667969 C 81.722656 89.6875 80.464844 86.898438 81.449219 84.386719 L 91.027344 59.960938 L 91.070312 59.804688 L 91.070312 59.765625 C 91.617188 58.390625 91.539062 56.9375 90.988281 55.640625 C 90.441406 54.425781 89.457031 53.402344 88.121094 52.855469 L 88.046875 52.816406 L 88.003906 52.777344 C 82.941406 50.8125 80.464844 57.015625 78.542969 61.964844 C 78.542969 62.042969 78.503906 62.121094 78.464844 62.199219 L 78.070312 63.300781 L 61.421875 105.984375 C 59.929688 109.871094 56.984375 112.777344 53.449219 114.347656 C 49.992188 115.839844 45.988281 116.078125 42.179688 114.703125 C 42.101562 114.664062 41.984375 114.621094 41.90625 114.582031 L 41.867188 114.582031 C 38.019531 113.050781 35.113281 110.105469 33.582031 106.613281 C 32.050781 103.195312 31.8125 99.191406 33.1875 95.421875 C 33.226562 95.304688 33.265625 95.222656 33.304688 95.105469 L 33.304688 95.066406 L 47.246094 59.765625 C 47.796875 58.390625 47.675781 56.9375 47.128906 55.640625 C 46.578125 54.386719 45.558594 53.324219 44.183594 52.816406 L 44.144531 52.777344 C 42.769531 52.265625 41.316406 52.34375 40.019531 52.894531 C 38.761719 53.445312 37.703125 54.503906 37.152344 55.878906 L 15.949219 110.066406 " fill-opacity="1" fill-rule="nonzero"/></g><g clip-path="url(#d9212341e3)"><path fill="#ffffff" d="M 146.488281 83.914062 C 145.503906 86.4375 146.765625 89.234375 149.246094 90.21875 C 151.769531 91.207031 154.566406 89.945312 155.550781 87.460938 L 167.6875 56.449219 C 168.632812 53.96875 167.414062 51.171875 164.929688 50.1875 C 162.410156 49.199219 159.609375 50.421875 158.625 52.945312 Z M 59.917969 109.6875 C 58.933594 112.207031 56.136719 113.429688 53.652344 112.445312 C 51.132812 111.457031 49.910156 108.660156 50.894531 106.179688 L 72.132812 51.761719 C 73.671875 47.898438 76.625 44.984375 80.171875 43.410156 C 83.71875 41.871094 87.855469 41.636719 91.71875 43.171875 L 91.796875 43.171875 C 95.65625 44.707031 98.574219 47.664062 100.109375 51.171875 C 101.648438 54.71875 101.882812 58.816406 100.386719 62.675781 L 100.347656 62.753906 L 86.398438 98.179688 L 86.359375 98.21875 L 86.320312 98.378906 C 85.847656 99.675781 85.964844 101.097656 86.476562 102.316406 C 87.027344 103.5 87.972656 104.523438 89.273438 105.074219 C 89.433594 105.15625 89.589844 105.234375 89.746094 105.273438 C 91.046875 105.707031 92.425781 105.585938 93.648438 105.074219 C 94.832031 104.5625 95.855469 103.617188 96.40625 102.355469 C 96.484375 102.160156 96.5625 101.921875 96.644531 101.726562 L 113.191406 59.25 L 113.625 58.144531 C 113.625 58.066406 113.664062 57.988281 113.707031 57.910156 C 117.132812 49.003906 121.664062 37.695312 135.691406 43.132812 L 135.730469 43.132812 C 135.8125 43.171875 135.890625 43.210938 136.007812 43.25 C 139.75 44.789062 142.589844 47.703125 144.085938 51.171875 C 145.660156 54.71875 145.859375 58.816406 144.359375 62.71875 L 144.398438 62.71875 L 144.359375 62.71875 C 144.359375 62.796875 144.320312 62.875 144.28125 62.953125 L 134.707031 87.460938 C 133.722656 89.945312 130.886719 91.207031 128.402344 90.21875 C 125.921875 89.234375 124.660156 86.4375 125.644531 83.914062 L 135.257812 59.40625 L 135.296875 59.25 L 135.296875 59.210938 C 135.847656 57.832031 135.769531 56.371094 135.21875 55.070312 C 134.667969 53.851562 133.683594 52.824219 132.34375 52.273438 L 132.265625 52.234375 L 132.222656 52.195312 C 127.140625 50.226562 124.660156 56.449219 122.730469 61.414062 C 122.730469 61.496094 122.6875 61.574219 122.648438 61.652344 L 122.253906 62.753906 L 105.546875 105.585938 C 104.050781 109.488281 101.09375 112.40625 97.550781 113.980469 C 94.082031 115.480469 90.0625 115.714844 86.242188 114.335938 C 86.160156 114.296875 86.042969 114.257812 85.964844 114.21875 L 85.925781 114.21875 C 82.0625 112.679688 79.148438 109.726562 77.609375 106.21875 C 76.074219 102.789062 75.835938 98.769531 77.214844 94.988281 C 77.257812 94.871094 77.296875 94.789062 77.335938 94.671875 L 77.335938 94.632812 L 91.324219 59.210938 C 91.875 57.832031 91.757812 56.371094 91.207031 55.070312 C 90.652344 53.8125 89.628906 52.746094 88.25 52.234375 L 88.210938 52.195312 C 86.832031 51.683594 85.375 51.761719 84.074219 52.3125 C 82.8125 52.867188 81.75 53.929688 81.195312 55.308594 L 59.917969 109.6875 " fill-opacity="1" fill-rule="nonzero"/></g><g clip-path="url(#dc5f9d8b14)"><path fill="#448d98" d="M 100.308594 80.070312 C 99.328125 82.582031 100.585938 85.371094 103.058594 86.351562 C 105.570312 87.335938 108.359375 86.078125 109.339844 83.605469 L 121.4375 52.699219 C 122.378906 50.226562 121.160156 47.4375 118.6875 46.457031 C 116.175781 45.472656 113.386719 46.691406 112.40625 49.203125 Z M 14.039062 105.75 C 13.058594 108.265625 10.269531 109.480469 7.792969 108.5 C 5.28125 107.515625 4.066406 104.730469 5.046875 102.253906 L 26.210938 48.027344 C 27.742188 44.179688 30.6875 41.273438 34.222656 39.703125 C 37.757812 38.171875 41.878906 37.933594 45.726562 39.464844 L 45.804688 39.464844 C 49.65625 40.996094 52.558594 43.941406 54.089844 47.4375 C 55.625 50.972656 55.859375 55.054688 54.367188 58.902344 L 54.328125 58.984375 L 40.425781 94.285156 L 40.386719 94.324219 L 40.347656 94.480469 C 39.875 95.777344 39.996094 97.191406 40.503906 98.40625 C 41.054688 99.585938 41.996094 100.605469 43.292969 101.15625 C 43.449219 101.234375 43.609375 101.3125 43.765625 101.355469 C 45.058594 101.785156 46.433594 101.667969 47.652344 101.15625 C 48.828125 100.648438 49.851562 99.703125 50.402344 98.449219 C 50.480469 98.25 50.558594 98.015625 50.636719 97.820312 L 67.128906 55.488281 L 67.5625 54.390625 C 67.5625 54.308594 67.601562 54.230469 67.640625 54.152344 C 71.054688 45.277344 75.570312 34.007812 89.550781 39.429688 L 89.589844 39.429688 C 89.667969 39.464844 89.746094 39.503906 89.863281 39.546875 C 93.597656 41.078125 96.421875 43.984375 97.914062 47.4375 C 99.484375 50.972656 99.683594 55.054688 98.191406 58.945312 L 98.230469 58.945312 L 98.191406 58.945312 C 98.191406 59.023438 98.152344 59.101562 98.109375 59.179688 L 88.570312 83.605469 C 87.585938 86.078125 84.761719 87.335938 82.285156 86.351562 C 79.8125 85.371094 78.554688 82.582031 79.535156 80.070312 L 89.117188 55.644531 L 89.160156 55.488281 L 89.160156 55.449219 C 89.707031 54.074219 89.628906 52.621094 89.078125 51.324219 C 88.53125 50.109375 87.546875 49.085938 86.210938 48.539062 L 86.136719 48.5 L 86.09375 48.457031 C 81.03125 46.496094 78.554688 52.699219 76.632812 57.648438 C 76.632812 57.726562 76.59375 57.804688 76.554688 57.882812 L 76.160156 58.984375 L 59.511719 101.667969 C 58.019531 105.554688 55.074219 108.460938 51.539062 110.03125 C 48.082031 111.523438 44.078125 111.757812 40.269531 110.382812 C 40.191406 110.347656 40.074219 110.304688 39.996094 110.265625 L 39.957031 110.265625 C 36.105469 108.734375 33.199219 105.789062 31.667969 102.296875 C 30.136719 98.878906 29.902344 94.875 31.277344 91.105469 C 31.316406 90.988281 31.355469 90.90625 31.394531 90.789062 L 31.394531 90.75 L 45.335938 55.449219 C 45.882812 54.074219 45.765625 52.621094 45.21875 51.324219 C 44.667969 50.070312 43.648438 49.007812 42.273438 48.5 L 42.234375 48.457031 C 40.859375 47.949219 39.40625 48.027344 38.109375 48.578125 C 36.851562 49.128906 35.792969 50.1875 35.242188 51.5625 L 14.039062 105.75 " fill-opacity="1" fill-rule="nonzero"/></g><g clip-path="url(#77cd77750e)"><path fill="#448d98" d="M 144.578125 79.597656 C 143.59375 82.121094 144.855469 84.917969 147.335938 85.902344 C 149.859375 86.890625 152.65625 85.628906 153.640625 83.144531 L 165.777344 52.132812 C 166.722656 49.652344 165.503906 46.855469 163.019531 45.871094 C 160.496094 44.882812 157.699219 46.105469 156.714844 48.628906 Z M 58.007812 105.367188 C 57.023438 107.890625 54.226562 109.113281 51.742188 108.128906 C 49.222656 107.140625 48 104.34375 48.984375 101.863281 L 70.222656 47.445312 C 71.761719 43.582031 74.714844 40.667969 78.261719 39.089844 C 81.808594 37.554688 85.945312 37.320312 89.808594 38.855469 L 89.886719 38.855469 C 93.746094 40.390625 96.664062 43.347656 98.199219 46.855469 C 99.738281 50.398438 99.972656 54.5 98.476562 58.359375 L 98.4375 58.4375 L 84.488281 93.863281 L 84.449219 93.902344 L 84.410156 94.058594 C 83.9375 95.359375 84.054688 96.777344 84.566406 98 C 85.117188 99.183594 86.0625 100.207031 87.363281 100.757812 C 87.519531 100.839844 87.679688 100.917969 87.835938 100.957031 C 89.136719 101.390625 90.515625 101.269531 91.738281 100.757812 C 92.917969 100.246094 93.945312 99.300781 94.496094 98.039062 C 94.574219 97.84375 94.652344 97.605469 94.734375 97.410156 L 111.28125 54.933594 L 111.714844 53.828125 C 111.714844 53.75 111.753906 53.671875 111.792969 53.59375 C 115.222656 44.6875 119.753906 33.378906 133.78125 38.816406 L 133.820312 38.816406 C 133.898438 38.855469 133.980469 38.894531 134.097656 38.933594 C 137.839844 40.472656 140.679688 43.386719 142.175781 46.855469 C 143.75 50.398438 143.949219 54.5 142.449219 58.398438 L 142.488281 58.398438 L 142.449219 58.398438 C 142.449219 58.476562 142.410156 58.558594 142.371094 58.636719 L 132.796875 83.144531 C 131.8125 85.628906 128.972656 86.890625 126.492188 85.902344 C 124.011719 84.917969 122.75 82.121094 123.734375 79.597656 L 133.347656 55.089844 L 133.386719 54.933594 L 133.386719 54.894531 C 133.9375 53.515625 133.859375 52.054688 133.308594 50.753906 C 132.757812 49.535156 131.773438 48.507812 130.433594 47.957031 L 130.355469 47.917969 L 130.3125 47.878906 C 125.230469 45.910156 122.75 52.132812 120.820312 57.097656 C 120.820312 57.179688 120.777344 57.257812 120.738281 57.335938 L 120.34375 58.4375 L 103.636719 101.269531 C 102.140625 105.171875 99.183594 108.085938 95.636719 109.664062 C 92.171875 111.164062 88.152344 111.398438 84.328125 110.019531 C 84.25 109.980469 84.132812 109.941406 84.054688 109.902344 L 84.015625 109.902344 C 80.152344 108.363281 77.238281 105.410156 75.699219 101.902344 C 74.164062 98.472656 73.925781 94.453125 75.304688 90.671875 C 75.34375 90.554688 75.386719 90.472656 75.425781 90.355469 L 75.425781 90.316406 L 89.414062 54.894531 C 89.964844 53.515625 89.847656 52.054688 89.292969 50.753906 C 88.742188 49.496094 87.71875 48.429688 86.339844 47.917969 L 86.300781 47.878906 C 84.921875 47.367188 83.460938 47.445312 82.164062 47.996094 C 80.902344 48.550781 79.835938 49.613281 79.285156 50.992188 L 58.007812 105.367188 " fill-opacity="1" fill-rule="nonzero"/></g></svg>