<svg xmlns="http://www.w3.org/2000/svg" xmlns:xlink="http://www.w3.org/1999/xlink" width="200" zoomAndPan="magnify" viewBox="0 0 150 149.999998" height="200" preserveAspectRatio="xMidYMid meet" version="1.0"><defs><clipPath id="f8be5d2137"><path d="M 9 45 L 102.355469 45 L 102.355469 117.992188 L 9 117.992188 Z M 9 45 " clip-rule="nonzero"/></clipPath><clipPath id="11236d4c1e"><path d="M 62.480469 44 L 145.886719 44 L 145.886719 117.375 L 62.480469 117.375 Z M 62.480469 44 " clip-rule="nonzero"/></clipPath><clipPath id="8ad213cc01"><path d="M 6 40 L 99.660156 40 L 99.660156 112.777344 L 6 112.777344 Z M 6 40 " clip-rule="nonzero"/></clipPath><clipPath id="7c834c5af2"><path d="M 59.785156 39 L 143.1875 39 L 143.1875 112 L 59.785156 112 Z M 59.785156 39 " clip-rule="nonzero"/></clipPath><clipPath id="e4609b6c09"><path d="M 4.09375 36 L 97.785156 36 L 97.785156 108 L 4.09375 108 Z M 4.09375 36 " clip-rule="nonzero"/></clipPath><clipPath id="9999501b1f"><path d="M 57.914062 35 L 141.316406 35 L 141.316406 107.925781 L 57.914062 107.925781 Z M 57.914062 35 " clip-rule="nonzero"/></clipPath></defs><g clip-path="url(#f8be5d2137)"><path fill="#1a1a1a" d="M 103.042969 86.8125 C 102.078125 89.277344 103.3125 92.011719 105.738281 92.976562 C 108.203125 93.9375 110.9375 92.707031 111.898438 90.28125 L 123.757812 59.976562 C 124.683594 57.550781 123.488281 54.816406 121.0625 53.851562 C 118.597656 52.890625 115.863281 54.085938 114.902344 56.546875 Z M 18.445312 111.996094 C 17.480469 114.460938 14.75 115.65625 12.320312 114.691406 C 9.859375 113.730469 8.664062 110.996094 9.628906 108.570312 L 30.382812 55.394531 C 31.882812 51.621094 34.769531 48.769531 38.238281 47.230469 C 41.703125 45.726562 45.746094 45.496094 49.519531 47 L 49.597656 47 C 53.371094 48.5 56.21875 51.386719 57.71875 54.816406 C 59.222656 58.28125 59.453125 62.285156 57.992188 66.058594 L 57.953125 66.136719 L 44.320312 100.753906 L 44.28125 100.792969 L 44.242188 100.945312 C 43.78125 102.214844 43.898438 103.601562 44.398438 104.796875 C 44.9375 105.949219 45.859375 106.953125 47.132812 107.492188 C 47.285156 107.570312 47.441406 107.644531 47.59375 107.683594 C 48.863281 108.105469 50.210938 107.992188 51.40625 107.492188 C 52.5625 106.992188 53.5625 106.066406 54.101562 104.835938 C 54.179688 104.640625 54.253906 104.410156 54.332031 104.21875 L 70.503906 62.710938 L 70.929688 61.632812 C 70.929688 61.554688 70.964844 61.476562 71.003906 61.402344 C 74.355469 52.699219 78.78125 41.644531 92.492188 46.960938 L 92.53125 46.960938 C 92.605469 47 92.683594 47.039062 92.800781 47.078125 C 96.457031 48.578125 99.230469 51.425781 100.695312 54.816406 C 102.234375 58.28125 102.425781 62.285156 100.964844 66.097656 L 101 66.097656 L 100.964844 66.097656 C 100.964844 66.175781 100.925781 66.25 100.886719 66.328125 L 91.527344 90.28125 C 90.566406 92.707031 87.792969 93.9375 85.367188 92.976562 C 82.941406 92.011719 81.710938 89.277344 82.671875 86.8125 L 92.066406 62.863281 L 92.105469 62.710938 L 92.105469 62.671875 C 92.644531 61.324219 92.570312 59.898438 92.03125 58.628906 C 91.488281 57.433594 90.527344 56.433594 89.21875 55.894531 L 89.140625 55.855469 L 89.101562 55.816406 C 84.136719 53.890625 81.710938 59.976562 79.824219 64.828125 C 79.824219 64.902344 79.785156 64.980469 79.746094 65.058594 L 79.359375 66.136719 L 63.035156 107.992188 C 61.570312 111.804688 58.683594 114.652344 55.21875 116.195312 C 51.828125 117.65625 47.902344 117.890625 44.167969 116.539062 C 44.089844 116.503906 43.972656 116.464844 43.898438 116.425781 L 43.859375 116.425781 C 40.085938 114.921875 37.234375 112.035156 35.734375 108.609375 C 34.230469 105.257812 34 101.332031 35.347656 97.632812 C 35.386719 97.519531 35.425781 97.441406 35.464844 97.324219 L 35.464844 97.289062 L 49.132812 62.671875 C 49.671875 61.324219 49.558594 59.898438 49.019531 58.628906 C 48.480469 57.394531 47.476562 56.355469 46.128906 55.855469 L 46.09375 55.816406 C 44.746094 55.316406 43.320312 55.394531 42.046875 55.933594 C 40.816406 56.472656 39.777344 57.511719 39.238281 58.859375 L 18.445312 111.996094 " fill-opacity="1" fill-rule="nonzero"/></g><g clip-path="url(#11236d4c1e)"><path fill="#1a1a1a" d="M 146.445312 86.351562 C 145.480469 88.824219 146.714844 91.566406 149.152344 92.535156 C 151.625 93.5 154.367188 92.261719 155.332031 89.828125 L 167.234375 59.421875 C 168.160156 56.988281 166.964844 54.242188 164.527344 53.277344 C 162.054688 52.3125 159.3125 53.507812 158.347656 55.980469 Z M 61.558594 111.621094 C 60.59375 114.09375 57.851562 115.292969 55.414062 114.324219 C 52.941406 113.359375 51.746094 110.617188 52.710938 108.179688 L 73.535156 54.824219 C 75.042969 51.035156 77.941406 48.175781 81.417969 46.632812 C 84.894531 45.125 88.953125 44.894531 92.738281 46.398438 L 92.816406 46.398438 C 96.605469 47.90625 99.460938 50.804688 100.96875 54.242188 C 102.476562 57.71875 102.707031 61.738281 101.242188 65.527344 L 101.203125 65.601562 L 87.523438 100.339844 L 87.484375 100.375 L 87.445312 100.53125 C 86.984375 101.804688 87.097656 103.199219 87.601562 104.394531 C 88.140625 105.554688 89.070312 106.558594 90.34375 107.101562 C 90.5 107.179688 90.652344 107.253906 90.808594 107.292969 C 92.082031 107.71875 93.433594 107.601562 94.632812 107.101562 C 95.792969 106.597656 96.796875 105.667969 97.335938 104.433594 C 97.414062 104.242188 97.492188 104.007812 97.570312 103.816406 L 113.796875 62.164062 L 114.222656 61.082031 C 114.222656 61.003906 114.261719 60.925781 114.300781 60.851562 C 117.660156 52.117188 122.105469 41.027344 135.859375 46.363281 L 135.898438 46.363281 C 135.976562 46.398438 136.054688 46.4375 136.167969 46.476562 C 139.839844 47.984375 142.621094 50.84375 144.089844 54.242188 C 145.636719 57.71875 145.828125 61.738281 144.359375 65.566406 L 144.398438 65.566406 L 144.359375 65.566406 C 144.359375 65.640625 144.320312 65.71875 144.28125 65.796875 L 134.894531 89.828125 C 133.925781 92.261719 131.144531 93.5 128.710938 92.535156 C 126.277344 91.566406 125.042969 88.824219 126.007812 86.351562 L 135.433594 62.316406 L 135.472656 62.164062 L 135.472656 62.125 C 136.015625 60.773438 135.9375 59.34375 135.394531 58.066406 C 134.855469 56.871094 133.890625 55.867188 132.574219 55.324219 L 132.5 55.285156 L 132.460938 55.246094 C 127.476562 53.316406 125.042969 59.421875 123.148438 64.289062 C 123.148438 64.367188 123.109375 64.445312 123.070312 64.519531 L 122.683594 65.601562 L 106.300781 107.601562 C 104.832031 111.425781 101.9375 114.285156 98.457031 115.832031 C 95.058594 117.300781 91.117188 117.53125 87.371094 116.179688 C 87.292969 116.140625 87.175781 116.101562 87.097656 116.0625 L 87.058594 116.0625 C 83.273438 114.558594 80.414062 111.660156 78.90625 108.222656 C 77.402344 104.859375 77.167969 100.917969 78.519531 97.207031 C 78.558594 97.09375 78.597656 97.015625 78.636719 96.898438 L 78.636719 96.859375 L 92.355469 62.125 C 92.894531 60.773438 92.777344 59.34375 92.238281 58.066406 C 91.695312 56.832031 90.691406 55.789062 89.339844 55.285156 L 89.300781 55.246094 C 87.949219 54.746094 86.519531 54.824219 85.246094 55.363281 C 84.007812 55.90625 82.964844 56.949219 82.421875 58.300781 L 61.558594 111.621094 " fill-opacity="1" fill-rule="nonzero"/></g><g clip-path="url(#8ad213cc01)"><path fill="#ffffff" d="M 100.347656 81.597656 C 99.382812 84.0625 100.613281 86.796875 103.042969 87.757812 C 105.503906 88.722656 108.238281 87.488281 109.203125 85.0625 L 121.0625 54.757812 C 121.984375 52.332031 120.792969 49.597656 118.367188 48.636719 C 115.902344 47.671875 113.167969 48.867188 112.207031 51.332031 Z M 15.75 106.78125 C 14.785156 109.246094 12.050781 110.4375 9.625 109.476562 C 7.164062 108.511719 5.96875 105.777344 6.929688 103.351562 L 27.6875 50.175781 C 29.1875 46.402344 32.074219 43.554688 35.539062 42.011719 C 39.007812 40.511719 43.050781 40.28125 46.824219 41.78125 L 46.898438 41.78125 C 50.671875 43.285156 53.523438 46.171875 55.023438 49.597656 C 56.527344 53.066406 56.757812 57.070312 55.292969 60.84375 L 55.253906 60.921875 L 41.625 95.535156 L 41.585938 95.574219 L 41.546875 95.730469 C 41.085938 97 41.199219 98.386719 41.703125 99.578125 C 42.242188 100.734375 43.164062 101.734375 44.4375 102.277344 C 44.589844 102.351562 44.742188 102.429688 44.898438 102.46875 C 46.167969 102.890625 47.515625 102.777344 48.710938 102.277344 C 49.863281 101.777344 50.867188 100.851562 51.40625 99.617188 C 51.480469 99.425781 51.558594 99.195312 51.636719 99.003906 L 67.808594 57.492188 L 68.234375 56.414062 C 68.234375 56.339844 68.269531 56.261719 68.308594 56.183594 C 71.660156 47.480469 76.085938 36.429688 89.796875 41.746094 L 89.832031 41.746094 C 89.910156 41.78125 89.988281 41.820312 90.105469 41.859375 C 93.761719 43.363281 96.535156 46.210938 97.996094 49.597656 C 99.539062 53.066406 99.730469 57.070312 98.265625 60.882812 L 98.304688 60.882812 L 98.265625 60.882812 C 98.265625 60.957031 98.230469 61.035156 98.1875 61.113281 L 88.832031 85.0625 C 87.871094 87.488281 85.097656 88.722656 82.671875 87.757812 C 80.246094 86.796875 79.015625 84.0625 79.976562 81.597656 L 89.371094 57.644531 L 89.410156 57.492188 L 89.410156 57.453125 C 89.949219 56.105469 89.871094 54.679688 89.332031 53.410156 C 88.792969 52.21875 87.832031 51.214844 86.523438 50.679688 L 86.445312 50.640625 L 86.40625 50.601562 C 81.441406 48.675781 79.015625 54.757812 77.128906 59.609375 C 77.128906 59.6875 77.089844 59.765625 77.050781 59.839844 L 76.664062 60.921875 L 60.339844 102.777344 C 58.875 106.585938 55.988281 109.4375 52.523438 110.976562 C 49.132812 112.441406 45.207031 112.671875 41.472656 111.324219 C 41.394531 111.285156 41.277344 111.246094 41.199219 111.207031 L 41.164062 111.207031 C 37.390625 109.707031 34.539062 106.820312 33.039062 103.394531 C 31.535156 100.042969 31.304688 96.113281 32.652344 92.417969 C 32.691406 92.300781 32.730469 92.226562 32.769531 92.109375 L 32.769531 92.070312 L 46.4375 57.453125 C 46.976562 56.105469 46.863281 54.679688 46.324219 53.410156 C 45.785156 52.179688 44.78125 51.140625 43.433594 50.640625 L 43.394531 50.601562 C 42.046875 50.097656 40.625 50.175781 39.351562 50.714844 C 38.121094 51.253906 37.082031 52.296875 36.542969 53.640625 L 15.75 106.78125 " fill-opacity="1" fill-rule="nonzero"/></g><g clip-path="url(#7c834c5af2)"><path fill="#ffffff" d="M 143.75 81.132812 C 142.785156 83.609375 144.019531 86.351562 146.457031 87.316406 C 148.929688 88.285156 151.671875 87.046875 152.636719 84.613281 L 164.539062 54.203125 C 165.464844 51.769531 164.269531 49.027344 161.832031 48.0625 C 159.359375 47.09375 156.617188 48.292969 155.652344 50.765625 Z M 58.863281 106.402344 C 57.898438 108.878906 55.152344 110.074219 52.71875 109.109375 C 50.246094 108.140625 49.050781 105.398438 50.015625 102.964844 L 70.839844 49.605469 C 72.347656 45.820312 75.246094 42.960938 78.722656 41.414062 C 82.199219 39.910156 86.257812 39.675781 90.042969 41.183594 L 90.121094 41.183594 C 93.90625 42.691406 96.765625 45.585938 98.273438 49.027344 C 99.78125 52.503906 100.011719 56.523438 98.542969 60.308594 L 98.503906 60.386719 L 84.828125 95.121094 L 84.789062 95.160156 L 84.75 95.316406 C 84.285156 96.589844 84.402344 97.980469 84.90625 99.179688 C 85.445312 100.335938 86.375 101.34375 87.648438 101.882812 C 87.804688 101.960938 87.957031 102.039062 88.113281 102.078125 C 89.386719 102.5 90.738281 102.386719 91.9375 101.882812 C 93.097656 101.382812 94.101562 100.453125 94.640625 99.21875 C 94.71875 99.023438 94.796875 98.792969 94.875 98.597656 L 111.101562 56.949219 L 111.527344 55.867188 C 111.527344 55.789062 111.566406 55.710938 111.605469 55.632812 C 114.964844 46.902344 119.410156 35.8125 133.164062 41.144531 L 133.203125 41.144531 C 133.28125 41.183594 133.355469 41.222656 133.472656 41.261719 C 137.144531 42.769531 139.925781 45.628906 141.394531 49.027344 C 142.9375 52.503906 143.132812 56.523438 141.664062 60.347656 L 141.703125 60.347656 L 141.664062 60.347656 C 141.664062 60.425781 141.625 60.503906 141.585938 60.582031 L 132.199219 84.613281 C 131.230469 87.046875 128.449219 88.285156 126.015625 87.316406 C 123.582031 86.351562 122.34375 83.609375 123.3125 81.132812 L 132.738281 57.101562 L 132.777344 56.949219 L 132.777344 56.910156 C 133.316406 55.558594 133.242188 54.125 132.699219 52.851562 C 132.160156 51.652344 131.195312 50.648438 129.878906 50.109375 L 129.800781 50.070312 L 129.761719 50.03125 C 124.78125 48.101562 122.34375 54.203125 120.453125 59.070312 C 120.453125 59.148438 120.414062 59.226562 120.375 59.304688 L 119.988281 60.386719 L 103.605469 102.386719 C 102.136719 106.210938 99.238281 109.070312 95.761719 110.617188 C 92.363281 112.085938 88.421875 112.316406 84.671875 110.964844 C 84.597656 110.925781 84.480469 110.886719 84.402344 110.847656 L 84.363281 110.847656 C 80.578125 109.339844 77.71875 106.441406 76.210938 103.003906 C 74.703125 99.640625 74.472656 95.703125 75.824219 91.992188 C 75.863281 91.875 75.902344 91.796875 75.941406 91.683594 L 75.941406 91.644531 L 89.65625 56.910156 C 90.199219 55.558594 90.082031 54.125 89.542969 52.851562 C 89 51.617188 87.996094 50.574219 86.644531 50.070312 L 86.605469 50.03125 C 85.253906 49.527344 83.824219 49.605469 82.546875 50.148438 C 81.3125 50.6875 80.269531 51.730469 79.726562 53.082031 L 58.863281 106.402344 " fill-opacity="1" fill-rule="nonzero"/></g><g clip-path="url(#e4609b6c09)"><path fill="#448d98" d="M 98.472656 77.363281 C 97.511719 79.828125 98.742188 82.5625 101.167969 83.527344 C 103.632812 84.488281 106.367188 83.257812 107.328125 80.832031 L 119.1875 50.527344 C 120.113281 48.101562 118.921875 45.367188 116.492188 44.402344 C 114.03125 43.441406 111.296875 44.636719 110.332031 47.097656 Z M 13.875 102.546875 C 12.914062 105.011719 10.179688 106.207031 7.753906 105.242188 C 5.289062 104.28125 4.09375 101.546875 5.058594 99.121094 L 25.8125 45.945312 C 27.3125 42.171875 30.203125 39.320312 33.667969 37.78125 C 37.132812 36.277344 41.175781 36.046875 44.949219 37.550781 L 45.027344 37.550781 C 48.800781 39.050781 51.648438 41.9375 53.152344 45.367188 C 54.652344 48.832031 54.882812 52.835938 53.421875 56.609375 L 53.382812 56.6875 L 39.75 91.304688 L 39.714844 91.34375 L 39.675781 91.496094 C 39.210938 92.765625 39.328125 94.152344 39.828125 95.347656 C 40.367188 96.5 41.292969 97.503906 42.5625 98.042969 C 42.714844 98.121094 42.871094 98.195312 43.023438 98.234375 C 44.296875 98.65625 45.644531 98.542969 46.835938 98.042969 C 47.992188 97.542969 48.992188 96.617188 49.53125 95.386719 C 49.609375 95.191406 49.6875 94.960938 49.761719 94.769531 L 65.933594 53.261719 L 66.359375 52.183594 C 66.359375 52.105469 66.398438 52.027344 66.4375 51.953125 C 69.785156 43.25 74.214844 32.195312 87.921875 37.511719 L 87.960938 37.511719 C 88.039062 37.550781 88.113281 37.589844 88.230469 37.628906 C 91.890625 39.128906 94.660156 41.976562 96.125 45.367188 C 97.664062 48.832031 97.855469 52.835938 96.394531 56.648438 L 96.429688 56.648438 L 96.394531 56.648438 C 96.394531 56.726562 96.355469 56.800781 96.316406 56.878906 L 86.960938 80.832031 C 85.996094 83.257812 83.222656 84.488281 80.796875 83.527344 C 78.375 82.5625 77.140625 79.828125 78.101562 77.363281 L 87.5 53.414062 L 87.539062 53.261719 L 87.539062 53.222656 C 88.074219 51.875 88 50.449219 87.460938 49.179688 C 86.921875 47.984375 85.957031 46.984375 84.648438 46.445312 L 84.574219 46.40625 L 84.535156 46.367188 C 79.566406 44.441406 77.140625 50.527344 75.253906 55.378906 C 75.253906 55.453125 75.214844 55.53125 75.175781 55.609375 L 74.792969 56.6875 L 58.464844 98.542969 C 57.003906 102.355469 54.113281 105.203125 50.648438 106.746094 C 47.261719 108.207031 43.332031 108.441406 39.597656 107.089844 C 39.519531 107.054688 39.40625 107.015625 39.328125 106.976562 L 39.289062 106.976562 C 35.515625 105.472656 32.667969 102.585938 31.164062 99.160156 C 29.664062 95.808594 29.433594 91.882812 30.78125 88.183594 C 30.816406 88.070312 30.855469 87.992188 30.894531 87.875 L 30.894531 87.839844 L 44.566406 53.222656 C 45.105469 51.875 44.988281 50.449219 44.449219 49.179688 C 43.910156 47.945312 42.910156 46.90625 41.5625 46.40625 L 41.523438 46.367188 C 40.175781 45.867188 38.75 45.945312 37.480469 46.484375 C 36.246094 47.023438 35.207031 48.0625 34.667969 49.410156 L 13.875 102.546875 " fill-opacity="1" fill-rule="nonzero"/></g><g clip-path="url(#9999501b1f)"><path fill="#448d98" d="M 141.878906 76.902344 C 140.910156 79.375 142.148438 82.117188 144.582031 83.085938 C 147.054688 84.050781 149.796875 82.8125 150.761719 80.378906 L 162.664062 49.972656 C 163.589844 47.539062 162.394531 44.792969 159.960938 43.828125 C 157.488281 42.863281 154.742188 44.058594 153.777344 46.53125 Z M 56.988281 102.171875 C 56.023438 104.644531 53.28125 105.84375 50.847656 104.875 C 48.375 103.910156 47.175781 101.167969 48.140625 98.730469 L 68.96875 45.375 C 70.472656 41.585938 73.371094 38.726562 76.851562 37.183594 C 80.328125 35.675781 84.382812 35.445312 88.171875 36.949219 L 88.25 36.949219 C 92.035156 38.457031 94.894531 41.355469 96.398438 44.792969 C 97.90625 48.269531 98.140625 52.289062 96.671875 56.078125 L 96.632812 56.152344 L 82.953125 90.890625 L 82.917969 90.925781 L 82.878906 91.082031 C 82.414062 92.355469 82.53125 93.75 83.03125 94.945312 C 83.574219 96.105469 84.5 97.109375 85.773438 97.652344 C 85.929688 97.730469 86.085938 97.804688 86.238281 97.84375 C 87.515625 98.269531 88.867188 98.152344 90.0625 97.652344 C 91.222656 97.148438 92.226562 96.21875 92.769531 94.984375 C 92.847656 94.792969 92.921875 94.558594 93 94.367188 L 109.226562 52.714844 L 109.652344 51.632812 C 109.652344 51.554688 109.691406 51.476562 109.730469 51.402344 C 113.09375 42.667969 117.535156 31.578125 131.289062 36.914062 L 131.328125 36.914062 C 131.40625 36.949219 131.484375 36.988281 131.601562 37.027344 C 135.269531 38.535156 138.050781 41.394531 139.519531 44.792969 C 141.066406 48.269531 141.257812 52.289062 139.792969 56.117188 L 139.828125 56.117188 L 139.792969 56.117188 C 139.792969 56.191406 139.753906 56.269531 139.714844 56.347656 L 130.324219 80.378906 C 129.359375 82.8125 126.578125 84.050781 124.144531 83.085938 C 121.707031 82.117188 120.472656 79.375 121.4375 76.902344 L 130.863281 52.867188 L 130.90625 52.714844 L 130.90625 52.675781 C 131.445312 51.324219 131.367188 49.894531 130.828125 48.617188 C 130.285156 47.421875 129.320312 46.417969 128.007812 45.875 L 127.929688 45.835938 L 127.890625 45.796875 C 122.90625 43.867188 120.472656 49.972656 118.578125 54.839844 C 118.578125 54.917969 118.539062 54.996094 118.5 55.070312 L 118.113281 56.152344 L 101.734375 98.152344 C 100.265625 101.976562 97.367188 104.835938 93.890625 106.382812 C 90.488281 107.851562 86.546875 108.082031 82.800781 106.730469 C 82.722656 106.691406 82.605469 106.652344 82.53125 106.613281 L 82.492188 106.613281 C 78.703125 105.109375 75.84375 102.210938 74.339844 98.773438 C 72.832031 95.410156 72.601562 91.46875 73.953125 87.757812 C 73.992188 87.644531 74.027344 87.566406 74.066406 87.449219 L 74.066406 87.410156 L 87.785156 52.675781 C 88.324219 51.324219 88.210938 49.894531 87.667969 48.617188 C 87.128906 47.382812 86.121094 46.339844 84.769531 45.835938 L 84.730469 45.796875 C 83.378906 45.296875 81.949219 45.375 80.675781 45.914062 C 79.4375 46.457031 78.394531 47.5 77.855469 48.851562 L 56.988281 102.171875 " fill-opacity="1" fill-rule="nonzero"/></g></svg>